<svg width="78" height="105" viewBox="0 0 78 105" fill="none" xmlns="http://www.w3.org/2000/svg">
<path d="M60.2745 104.3C60.9923 105.139 62.2547 105.238 63.0943 104.52L76.7757 92.8232C77.6153 92.1054 77.714 90.8429 76.9962 90.0034C76.2784 89.1638 75.0159 89.0651 74.1764 89.7829L62.0151 100.18L51.6178 88.0189C50.9 87.1794 49.6376 87.0806 48.798 87.7984C47.9584 88.5162 47.8597 89.7787 48.5775 90.6182L60.2745 104.3ZM0.138813 1.73211C5.77866 16.0699 13.2005 22.4025 21.1636 25.4793C25.0636 26.9862 29.0058 27.6772 32.7043 28.2185C36.4714 28.7699 39.8829 29.157 43.0777 30.0231C46.2134 30.8732 48.9875 32.1523 51.377 34.3932C53.7701 36.6377 55.9087 39.9706 57.5608 45.1349C60.8937 55.553 62.1313 73.0394 59.8007 102.844L63.7885 103.156C66.1249 73.2774 64.9561 55.1239 61.3706 43.9161C59.5636 38.2674 57.1151 34.2908 54.1133 31.4756C51.1078 28.6569 47.6791 27.1261 44.1243 26.1625C40.6287 25.2148 36.8621 24.7844 33.2836 24.2607C29.6365 23.7268 26.0657 23.0851 22.6053 21.7481C15.8476 19.1371 9.15939 13.7371 3.86119 0.267891L0.138813 1.73211Z" fill="black"/>
</svg>
