<svg width="482" height="210" viewBox="0 0 482 210" fill="none" xmlns="http://www.w3.org/2000/svg">
<path d="M47.904 94.096H22.752L18.72 106H1.536L25.92 38.608H44.928L69.312 106H51.936L47.904 94.096ZM43.68 81.424L35.328 56.752L27.072 81.424H43.68ZM93.1493 60.016C94.6853 57.52 96.8933 55.504 99.7733 53.968C102.653 52.432 105.949 51.664 109.661 51.664C114.077 51.664 118.077 52.784 121.661 55.024C125.245 57.264 128.061 60.464 130.109 64.624C132.221 68.784 133.277 73.616 133.277 79.12C133.277 84.624 132.221 89.488 130.109 93.712C128.061 97.872 125.245 101.104 121.661 103.408C118.077 105.648 114.077 106.768 109.661 106.768C105.885 106.768 102.589 106.032 99.7733 104.56C96.9573 103.024 94.7493 101.008 93.1493 98.512V106H76.7333V34.96H93.1493V60.016ZM116.573 79.12C116.573 75.024 115.421 71.824 113.117 69.52C110.877 67.152 108.093 65.968 104.765 65.968C101.501 65.968 98.7173 67.152 96.4133 69.52C94.1733 71.888 93.0533 75.12 93.0533 79.216C93.0533 83.312 94.1733 86.544 96.4133 88.912C98.7173 91.28 101.501 92.464 104.765 92.464C108.029 92.464 110.813 91.28 113.117 88.912C115.421 86.48 116.573 83.216 116.573 79.12ZM166.274 106.768C161.026 106.768 156.29 105.648 152.066 103.408C147.906 101.168 144.61 97.968 142.178 93.808C139.81 89.648 138.626 84.784 138.626 79.216C138.626 73.712 139.842 68.88 142.273 64.72C144.706 60.496 148.034 57.264 152.258 55.024C156.482 52.784 161.218 51.664 166.466 51.664C171.714 51.664 176.45 52.784 180.674 55.024C184.898 57.264 188.226 60.496 190.658 64.72C193.09 68.88 194.306 73.712 194.306 79.216C194.306 84.72 193.058 89.584 190.562 93.808C188.13 97.968 184.77 101.168 180.482 103.408C176.258 105.648 171.522 106.768 166.274 106.768ZM166.274 92.56C169.41 92.56 172.066 91.408 174.242 89.104C176.482 86.8 177.602 83.504 177.602 79.216C177.602 74.928 176.514 71.632 174.338 69.328C172.226 67.024 169.602 65.872 166.466 65.872C163.266 65.872 160.61 67.024 158.498 69.328C156.386 71.568 155.33 74.864 155.33 79.216C155.33 83.504 156.354 86.8 158.402 89.104C160.514 91.408 163.138 92.56 166.274 92.56ZM255.911 52.432V106H239.495V98.704C237.831 101.072 235.559 102.992 232.679 104.464C229.863 105.872 226.727 106.576 223.271 106.576C219.175 106.576 215.559 105.68 212.423 103.888C209.287 102.032 206.855 99.376 205.127 95.92C203.399 92.464 202.535 88.4 202.535 83.728V52.432H218.855V81.52C218.855 85.104 219.783 87.888 221.639 89.872C223.495 91.856 225.991 92.848 229.127 92.848C232.327 92.848 234.855 91.856 236.711 89.872C238.567 87.888 239.495 85.104 239.495 81.52V52.432H255.911ZM297.558 92.08V106H289.206C283.254 106 278.614 104.56 275.286 101.68C271.958 98.736 270.294 93.968 270.294 87.376V66.064H263.766V52.432H270.294V39.376H286.71V52.432H297.462V66.064H286.71V87.568C286.71 89.168 287.094 90.32 287.862 91.024C288.63 91.728 289.91 92.08 291.702 92.08H297.558ZM395.398 51.856C402.054 51.856 407.334 53.872 411.238 57.904C415.206 61.936 417.19 67.536 417.19 74.704V106H400.87V76.912C400.87 73.456 399.942 70.8 398.086 68.944C396.294 67.024 393.798 66.064 390.598 66.064C387.398 66.064 384.87 67.024 383.014 68.944C381.222 70.8 380.326 73.456 380.326 76.912V106H364.006V76.912C364.006 73.456 363.078 70.8 361.222 68.944C359.43 67.024 356.934 66.064 353.734 66.064C350.534 66.064 348.006 67.024 346.15 68.944C344.358 70.8 343.462 73.456 343.462 76.912V106H327.046V52.432H343.462V59.152C345.126 56.912 347.302 55.152 349.99 53.872C352.678 52.528 355.718 51.856 359.11 51.856C363.142 51.856 366.726 52.72 369.862 54.448C373.062 56.176 375.558 58.64 377.35 61.84C379.206 58.896 381.734 56.496 384.934 54.64C388.134 52.784 391.622 51.856 395.398 51.856ZM479.167 78.352C479.167 79.888 479.071 81.488 478.879 83.152H441.727C441.983 86.48 443.039 89.04 444.895 90.832C446.815 92.56 449.151 93.424 451.903 93.424C455.999 93.424 458.847 91.696 460.447 88.24H477.919C477.023 91.76 475.391 94.928 473.023 97.744C470.719 100.56 467.807 102.768 464.287 104.368C460.767 105.968 456.831 106.768 452.479 106.768C447.231 106.768 442.559 105.648 438.463 103.408C434.367 101.168 431.167 97.968 428.863 93.808C426.559 89.648 425.407 84.784 425.407 79.216C425.407 73.648 426.527 68.784 428.767 64.624C431.071 60.464 434.271 57.264 438.367 55.024C442.463 52.784 447.167 51.664 452.479 51.664C457.663 51.664 462.271 52.752 466.303 54.928C470.335 57.104 473.471 60.208 475.711 64.24C478.015 68.272 479.167 72.976 479.167 78.352ZM462.367 74.032C462.367 71.216 461.407 68.976 459.487 67.312C457.567 65.648 455.167 64.816 452.287 64.816C449.535 64.816 447.199 65.616 445.279 67.216C443.423 68.816 442.271 71.088 441.823 74.032H462.367Z" fill="black"/>
<path d="M461.274 209.3C461.992 210.139 463.255 210.238 464.094 209.52L477.776 197.823C478.615 197.105 478.714 195.843 477.996 195.003C477.278 194.164 476.016 194.065 475.176 194.783L463.015 205.18L452.618 193.019C451.9 192.179 450.638 192.081 449.798 192.798C448.958 193.516 448.86 194.779 449.578 195.618L461.274 209.3ZM401.139 106.732C406.779 121.07 414.201 127.403 422.164 130.479C426.064 131.986 430.006 132.677 433.704 133.218C437.471 133.77 440.883 134.157 444.078 135.023C447.213 135.873 449.987 137.152 452.377 139.393C454.77 141.638 456.909 144.971 458.561 150.135C461.894 160.553 463.131 178.039 460.801 207.844L464.789 208.156C467.125 178.277 465.956 160.124 462.371 148.916C460.564 143.267 458.115 139.291 455.113 136.476C452.108 133.657 448.679 132.126 445.124 131.162C441.629 130.215 437.862 129.784 434.284 129.261C430.637 128.727 427.066 128.085 423.605 126.748C416.848 124.137 410.159 118.737 404.861 105.268L401.139 106.732Z" fill="black"/>
</svg>
