<svg width="67" height="67" viewBox="0 0 67 67" fill="none" xmlns="http://www.w3.org/2000/svg">
<path d="M55.8333 11.1667H11.1666C9.68585 11.1667 8.26571 11.7549 7.21863 12.802C6.17156 13.8491 5.58331 15.2692 5.58331 16.75V50.25C5.58331 51.7308 6.17156 53.1509 7.21863 54.198C8.26571 55.2451 9.68585 55.8333 11.1666 55.8333H55.8333C57.3141 55.8333 58.7342 55.2451 59.7813 54.198C60.8284 53.1509 61.4166 51.7308 61.4166 50.25V16.75C61.4166 15.2692 60.8284 13.8491 59.7813 12.802C58.7342 11.7549 57.3141 11.1667 55.8333 11.1667ZM55.8333 24.2875L33.5 39.1783L11.1666 24.2875V17.5791L33.5 32.4671L55.8333 17.5791V24.2875Z" fill="black"/>
</svg>
