<svg width="67" height="67" viewBox="0 0 67 67" fill="none" xmlns="http://www.w3.org/2000/svg">
<path fill-rule="evenodd" clip-rule="evenodd" d="M33.5726 5.58334C18.1933 5.58334 5.72852 18.0481 5.72852 33.4274C5.72852 45.7275 13.7043 56.1655 24.7705 59.8505C26.1635 60.1018 26.666 59.2448 26.666 58.5078C26.666 57.8461 26.6437 56.093 26.6353 53.7731C18.8884 55.4537 17.2525 50.0378 17.2525 50.0378C15.9907 46.8218 14.1621 45.9648 14.1621 45.9648C11.6357 44.2368 14.3548 44.2758 14.3548 44.2758C17.152 44.4713 18.6176 47.1457 18.6176 47.1457C21.1022 51.4002 25.139 50.1718 26.7191 49.46C26.9731 47.6593 27.6989 46.431 28.4918 45.7359C22.311 45.0352 15.812 42.6455 15.812 31.973C15.812 28.9384 16.898 26.4483 18.6707 24.5053C18.3887 23.799 17.4256 20.9654 18.9471 17.1353C18.9471 17.1353 21.2837 16.3843 26.6018 19.9855C28.8731 19.3677 31.216 19.0523 33.5698 19.0475C35.9237 19.0514 38.2667 19.3668 40.5378 19.9855C45.8587 16.3815 48.1926 17.1353 48.1926 17.1353C49.714 20.9654 48.7593 23.799 48.4689 24.5053C50.2556 26.4483 51.3276 28.9356 51.3276 31.973C51.3276 42.6734 44.823 45.024 38.6199 45.7135C39.611 46.5734 40.5043 48.2707 40.5043 50.867C40.5043 54.591 40.4708 57.5949 40.4708 58.5078C40.4708 59.2531 40.9677 60.1185 42.3887 59.845C53.4493 56.1544 61.4167 45.7247 61.4167 33.4274C61.4167 18.0481 48.9519 5.58334 33.5726 5.58334Z" fill="black"/>
</svg>
