<svg width="67" height="67" viewBox="0 0 67 67" fill="none" xmlns="http://www.w3.org/2000/svg">
<path d="M33.4972 20.5941C30.0736 20.5941 26.7903 21.9541 24.3694 24.375C21.9486 26.7958 20.5886 30.0792 20.5886 33.5028C20.5886 36.9264 21.9486 40.2097 24.3694 42.6306C26.7903 45.0514 30.0736 46.4114 33.4972 46.4114C36.9208 46.4114 40.2042 45.0514 42.625 42.6306C45.0459 40.2097 46.4059 36.9264 46.4059 33.5028C46.4059 30.0792 45.0459 26.7958 42.625 24.375C40.2042 21.9541 36.9208 20.5941 33.4972 20.5941ZM33.4972 41.8862C31.2731 41.8862 29.14 41.0026 27.5673 39.4299C25.9946 37.8572 25.1111 35.7241 25.1111 33.5C25.1111 31.2758 25.9946 29.1428 27.5673 27.5701C29.14 25.9974 31.2731 25.1138 33.4972 25.1138C35.7214 25.1138 37.8544 25.9974 39.4271 27.5701C40.9999 29.1428 41.8834 31.2758 41.8834 33.5C41.8834 35.7241 40.9999 37.8572 39.4271 39.4299C37.8544 41.0026 35.7214 41.8862 33.4972 41.8862Z" fill="black"/>
<path d="M46.9168 23.129C48.5788 23.129 49.9262 21.7816 49.9262 20.1196C49.9262 18.4575 48.5788 17.1101 46.9168 17.1101C45.2547 17.1101 43.9073 18.4575 43.9073 20.1196C43.9073 21.7816 45.2547 23.129 46.9168 23.129Z" fill="black"/>
<path d="M57.3213 17.0599C56.675 15.391 55.6874 13.8754 54.4217 12.6101C53.1559 11.3449 51.64 10.3578 49.9708 9.7122C48.0176 8.97898 45.9541 8.58252 43.8682 8.5397C41.1798 8.42245 40.3284 8.38895 33.5111 8.38895C26.6939 8.38895 25.8201 8.38895 23.1541 8.5397C21.0698 8.58033 19.0078 8.97688 17.0571 9.7122C15.3875 10.3571 13.8711 11.3438 12.6053 12.6092C11.3395 13.8745 10.3521 15.3905 9.7066 17.0599C8.97324 19.0129 8.57769 21.0766 8.53689 23.1624C8.41685 25.848 8.38055 26.6995 8.38055 33.5195C8.38055 40.3368 8.38055 41.205 8.53689 43.8766C8.57876 45.9648 8.97239 48.025 9.7066 49.982C10.3539 51.6507 11.3422 53.1661 12.6084 54.4313C13.8745 55.6964 15.3906 56.6836 17.0598 57.3297C19.0068 58.0923 21.0697 58.5172 23.1596 58.5859C25.848 58.7032 26.6995 58.7394 33.5167 58.7394C40.334 58.7394 41.2078 58.7394 43.8738 58.5859C45.9595 58.5435 48.0229 58.148 49.9764 57.4162C51.6451 56.7691 53.1606 55.7812 54.4262 54.5156C55.6918 53.25 56.6797 51.7345 57.3268 50.0657C58.0611 48.1116 58.4547 46.0513 58.4966 43.9632C58.6166 41.2776 58.6529 40.4261 58.6529 33.6061C58.6529 26.786 58.6529 25.9206 58.4966 23.249C58.4641 21.1337 58.0665 19.0398 57.3213 17.0599ZM53.921 43.67C53.903 45.2789 53.6094 46.8727 53.0528 48.3824C52.6336 49.468 51.9918 50.4538 51.1686 51.2764C50.3455 52.0991 49.3593 52.7403 48.2735 53.1589C46.7806 53.7129 45.2036 54.0066 43.6114 54.0271C40.9593 54.1499 40.2111 54.1807 33.4106 54.1807C26.6046 54.1807 25.9094 54.1807 23.2071 54.0271C21.6156 54.0076 20.0395 53.7139 18.5478 53.1589C17.4582 52.7429 16.468 52.1028 15.6414 51.28C14.8147 50.4572 14.17 49.47 13.7489 48.3824C13.2002 46.889 12.9067 45.3139 12.8807 43.7231C12.7607 41.071 12.7328 40.3228 12.7328 33.5223C12.7328 26.719 12.7328 26.0239 12.8807 23.3188C12.8988 21.7108 13.1924 20.1179 13.7489 18.6092C14.6004 16.4066 16.3452 14.673 18.5478 13.8299C20.0402 13.2775 21.6159 12.9839 23.2071 12.9617C25.862 12.8417 26.6073 12.8082 33.4106 12.8082C40.2139 12.8082 40.9118 12.8082 43.6114 12.9617C45.2038 12.9809 46.7809 13.2746 48.2735 13.8299C49.3592 14.2494 50.3453 14.8913 51.1683 15.7144C51.9914 16.5374 52.6333 17.5235 53.0528 18.6092C53.6015 20.1026 53.895 21.6777 53.921 23.2685C54.0411 25.9234 54.0718 26.6688 54.0718 33.4721C54.0718 40.2726 54.0718 41.004 53.9517 43.6728H53.921V43.67Z" fill="black"/>
</svg>
