<svg width="67" height="67" viewBox="0 0 67 67" fill="none" xmlns="http://www.w3.org/2000/svg">
<path d="M13.9109 20.0916C17.2843 20.0916 20.0191 17.3569 20.0191 13.9835C20.0191 10.61 17.2843 7.87529 13.9109 7.87529C10.5375 7.87529 7.80273 10.61 7.80273 13.9835C7.80273 17.3569 10.5375 20.0916 13.9109 20.0916Z" fill="black"/>
<path d="M25.7866 24.7202V58.6082H36.3084V41.8499C36.3084 37.4279 37.1403 33.1455 42.6232 33.1455C48.0306 33.1455 48.0976 38.2012 48.0976 42.129V58.611H58.625V40.0269C58.625 30.8982 56.6597 23.8827 45.9899 23.8827C40.8672 23.8827 37.4334 26.6939 36.0292 29.3544H35.8869V24.7202H25.7866ZM8.6402 24.7202H19.1787V58.6082H8.6402V24.7202Z" fill="black"/>
</svg>
