<svg width="148" height="769" viewBox="0 0 148 769" fill="none" xmlns="http://www.w3.org/2000/svg">
<path d="M141.483 0.872104L141.447 29.3167L68.1123 59.2643L68.1106 60.5427L141.367 90.6803L141.33 119.125L32.2395 118.984L32.2684 96.6114L103.273 96.7034L103.275 95.7978L32.8388 67.475L32.8586 52.2407L103.634 24.1008L103.635 23.1953L32.3636 23.1029L32.3926 0.730802L141.483 0.872104ZM1.51545 151.53C1.51918 148.653 1.7535 145.955 2.21841 143.434C2.64777 140.949 3.20086 138.89 3.8777 137.257L20.81 142.393C19.9898 145.055 19.5428 147.452 19.469 149.582C19.3952 151.748 19.8899 153.613 20.9532 155.177C22.0165 156.777 23.8259 158.075 26.3814 159.073L29.842 160.409L114.042 131.168L114.011 155.031L53.9039 171.893L53.9028 172.745L113.966 189.921L113.935 213.945L23.3155 182.027C18.914 180.494 15.0815 178.412 11.8179 175.78C8.51867 173.183 5.98386 169.895 4.21344 165.916C2.40752 161.936 1.50819 157.141 1.51545 151.53ZM1.37479 260.128L113.875 260.274L113.846 282.646L100.103 282.628L100.102 283.64C102.302 284.637 104.537 286.078 106.808 287.963C109.113 289.884 111.028 292.372 112.551 295.428C114.109 298.52 114.886 302.356 114.88 306.937C114.872 312.903 113.302 318.405 110.171 323.444C107.075 328.482 102.4 332.507 96.1458 335.517C89.9274 338.528 82.1307 340.027 72.7558 340.015C63.6293 340.003 55.9253 338.519 49.6436 335.563C43.3974 332.643 38.6618 328.66 35.4368 323.613C32.2472 318.602 30.6565 312.989 30.6645 306.775C30.6702 302.371 31.4031 298.626 32.863 295.538C34.323 292.486 36.155 289.985 38.3593 288.035C40.599 286.084 42.8559 284.596 45.13 283.569L45.1309 282.876L1.3454 282.82L1.37479 260.128ZM72.9369 282.433C68.0718 282.427 63.8273 283.096 60.2034 284.441C56.5795 285.785 53.7539 287.735 51.7264 290.289C49.7344 292.843 48.7361 295.949 48.7314 299.607C48.7266 303.3 49.7346 306.426 51.7554 308.986C53.8118 311.545 56.6502 313.484 60.2706 314.803C63.9266 316.157 68.1338 316.837 72.8923 316.844C77.6153 316.85 81.771 316.198 85.3593 314.889C88.9477 313.58 91.7556 311.648 93.783 309.094C95.8105 306.539 96.8266 303.398 96.8315 299.669C96.8363 295.976 95.8637 292.85 93.9139 290.29C91.9641 287.767 89.1967 285.828 85.6118 284.474C82.0269 283.12 77.8019 282.439 72.9369 282.433ZM31.9336 355.09L113.752 355.196L113.722 377.887L31.9042 377.781L31.9336 355.09ZM124.284 366.608C124.288 363.235 125.411 360.342 127.651 357.93C129.927 355.554 132.645 354.368 135.805 354.372C138.93 354.376 141.61 355.569 143.844 357.951C146.114 360.369 147.246 363.264 147.242 366.638C147.238 370.012 146.097 372.887 143.822 375.263C141.581 377.675 138.899 378.879 135.774 378.875C132.613 378.871 129.898 377.66 127.629 375.242C125.394 372.86 124.279 369.982 124.284 366.608ZM30.2348 432.924C30.2457 424.543 32.0306 417.337 35.5895 411.304C39.1839 405.308 44.1615 400.698 50.5222 397.474C56.8829 394.286 64.2003 392.698 72.4744 392.709C80.8551 392.72 88.2039 394.345 94.5207 397.585C100.873 400.86 105.821 405.5 109.364 411.506C112.943 417.513 114.727 424.653 114.716 432.927C114.707 440.065 113.403 446.313 110.804 451.672C108.204 457.031 104.559 461.269 99.8674 464.388C95.1759 467.507 89.6694 469.222 83.3479 469.534L83.3757 448.121C87.4603 447.522 90.7471 445.928 93.2363 443.339C95.7609 440.786 97.0259 437.432 97.0313 433.277C97.0358 429.761 96.081 426.688 94.1668 424.058C92.2881 421.463 89.5386 419.435 85.9183 417.975C82.298 416.514 77.9133 415.78 72.7642 415.774C67.544 415.767 63.1042 416.471 59.4447 417.887C55.7851 419.338 52.9948 421.377 51.0738 424.002C49.1528 426.627 48.19 429.698 48.1854 433.213C48.1821 435.806 48.7117 438.132 49.7744 440.193C50.837 442.29 52.3796 444.014 54.402 445.366C56.4598 446.754 58.9267 447.663 61.8025 448.093L61.7748 469.506C55.5253 469.143 50.0232 467.431 45.2687 464.371C40.5496 461.346 36.8618 457.169 34.2053 451.839C31.5489 446.509 30.2254 440.204 30.2348 432.924ZM113.528 527.621L96.483 527.599L96.5468 478.327L113.592 478.349L113.528 527.621ZM133.18 489.56L133.151 512.252L56.8723 512.153C54.7771 512.15 53.1432 512.468 51.9705 513.106C50.8333 513.743 50.0331 514.63 49.57 515.766C49.1068 516.937 48.8743 518.286 48.8723 519.813C48.8709 520.879 48.9583 521.944 49.1345 523.01C49.3462 524.075 49.5049 524.892 49.6107 525.461L32.7204 529.008C32.3668 527.871 31.9605 526.272 31.5015 524.212C31.007 522.152 30.7084 519.648 30.6057 516.7C30.3997 511.231 31.1339 506.438 32.8083 502.321C34.4826 498.239 37.079 495.064 40.5976 492.796C44.1162 490.528 48.5565 489.415 53.9187 489.458L133.18 489.56ZM66.4598 594.81L113.441 594.87L113.412 617.562L31.5938 617.456L31.622 595.67L46.4835 595.689L46.4846 594.837C41.693 592.984 37.844 589.907 34.9376 585.607C32.0312 581.342 30.582 576.137 30.5899 569.994C30.597 564.525 31.8461 559.715 34.3373 555.563C36.8285 551.412 40.3661 548.167 44.9501 545.829C49.534 543.527 55.0221 542.362 61.4141 542.335L113.509 542.402L113.48 565.094L65.433 565.032C60.6035 565.061 56.7843 566.352 53.9756 568.906C51.1669 571.459 49.7598 574.884 49.7542 579.181C49.7506 581.915 50.3688 584.473 51.6086 586.853C52.8839 589.234 54.7635 591.154 57.2475 592.614C59.7313 594.108 62.8021 594.84 66.4598 594.81ZM31.5703 635.607L113.388 635.713L113.36 657.712L99.0844 657.694L99.0832 658.546C104.159 660.044 107.991 662.552 110.579 666.071C113.202 669.59 114.511 673.64 114.505 678.221C114.504 679.358 114.431 680.583 114.287 681.897C114.144 683.21 113.947 684.364 113.697 685.358L93.562 685.332C93.883 684.267 94.169 682.794 94.42 680.912C94.6711 679.03 94.7976 677.308 94.7996 675.746C94.8039 672.408 94.0798 669.424 92.6272 666.794C91.2102 664.2 89.2242 662.138 86.6693 660.607C84.1145 659.112 81.168 658.363 77.8299 658.359L31.5409 658.299L31.5703 635.607ZM29.8494 730.46C29.8603 722.044 31.5742 714.802 34.9912 708.734C38.4436 702.701 43.3147 698.056 49.6044 694.797C55.9297 691.538 63.4069 689.914 72.0362 689.925C80.4524 689.936 87.8366 691.579 94.1889 694.854C100.541 698.13 105.489 702.735 109.033 708.67C112.576 714.64 114.342 721.638 114.332 729.664C114.325 735.062 113.449 740.085 111.702 744.735C109.992 749.42 107.412 753.501 103.963 756.976C100.514 760.488 96.1778 763.216 90.9551 765.163C85.7679 767.109 79.6942 768.078 72.734 768.069L66.5017 768.061L66.5912 698.973L80.6537 698.992L80.5919 746.719C83.8589 746.723 86.754 746.017 89.2772 744.6C91.8003 743.182 93.7738 741.214 95.1975 738.695C96.6567 736.211 97.3884 733.317 97.3927 730.015C97.3971 726.57 96.6021 723.515 95.0075 720.85C93.4484 718.22 91.3382 716.158 88.6768 714.663C86.0508 713.168 83.1221 712.4 79.8907 712.361L66.5206 712.343C62.4724 712.338 58.9735 713.079 56.0241 714.567C53.0747 716.09 50.7992 718.236 49.1976 721.004C47.596 723.771 46.7928 727.055 46.7878 730.855C46.7846 733.376 47.1367 735.685 47.8442 737.781C48.5517 739.877 49.6147 741.672 51.0333 743.165C52.4518 744.658 54.1904 745.797 56.249 746.581L54.8369 767.566C49.7957 766.494 45.3951 764.305 41.6352 760.997C37.9107 757.725 35.0042 753.496 32.9158 748.308C30.8628 743.157 29.8407 737.207 29.8494 730.46Z" fill="black"/>
<path d="M141.483 0.872104L141.447 29.3167L68.1123 59.2643L68.1106 60.5427L141.367 90.6803L141.33 119.125L32.2395 118.984L32.2684 96.6114L103.273 96.7034L103.275 95.7978L32.8388 67.475L32.8586 52.2407L103.634 24.1008L103.635 23.1953L32.3636 23.1029L32.3926 0.730802L141.483 0.872104ZM1.51545 151.53C1.51918 148.653 1.7535 145.955 2.21841 143.434C2.64777 140.949 3.20086 138.89 3.8777 137.257L20.81 142.393C19.9898 145.055 19.5428 147.452 19.469 149.582C19.3952 151.748 19.8899 153.613 20.9532 155.177C22.0165 156.777 23.8259 158.075 26.3814 159.073L29.842 160.409L114.042 131.168L114.011 155.031L53.9039 171.893L53.9028 172.745L113.966 189.921L113.935 213.945L23.3155 182.027C18.914 180.494 15.0815 178.412 11.8179 175.78C8.51867 173.183 5.98386 169.895 4.21344 165.916C2.40752 161.936 1.50819 157.141 1.51545 151.53ZM1.37479 260.128L113.875 260.274L113.846 282.646L100.103 282.628L100.102 283.64C102.302 284.637 104.537 286.078 106.808 287.963C109.113 289.884 111.028 292.372 112.551 295.428C114.109 298.52 114.886 302.356 114.88 306.937C114.872 312.903 113.302 318.405 110.171 323.444C107.075 328.482 102.4 332.507 96.1458 335.517C89.9274 338.528 82.1307 340.027 72.7558 340.015C63.6293 340.003 55.9253 338.519 49.6436 335.563C43.3974 332.643 38.6618 328.66 35.4368 323.613C32.2472 318.602 30.6565 312.989 30.6645 306.775C30.6702 302.371 31.4031 298.626 32.863 295.538C34.323 292.486 36.155 289.985 38.3593 288.035C40.599 286.084 42.8559 284.596 45.13 283.569L45.1309 282.876L1.3454 282.82L1.37479 260.128ZM72.9369 282.433C68.0718 282.427 63.8273 283.096 60.2034 284.441C56.5795 285.785 53.7539 287.735 51.7264 290.289C49.7344 292.843 48.7361 295.949 48.7314 299.607C48.7266 303.3 49.7346 306.426 51.7554 308.986C53.8118 311.545 56.6502 313.484 60.2706 314.803C63.9266 316.157 68.1338 316.837 72.8923 316.844C77.6153 316.85 81.771 316.198 85.3593 314.889C88.9477 313.58 91.7556 311.648 93.783 309.094C95.8105 306.539 96.8266 303.398 96.8315 299.669C96.8363 295.976 95.8637 292.85 93.9139 290.29C91.9641 287.767 89.1967 285.828 85.6118 284.474C82.0269 283.12 77.8019 282.439 72.9369 282.433ZM31.9336 355.09L113.752 355.196L113.722 377.887L31.9042 377.781L31.9336 355.09ZM124.284 366.608C124.288 363.235 125.411 360.342 127.651 357.93C129.927 355.554 132.645 354.368 135.805 354.372C138.93 354.376 141.61 355.569 143.844 357.951C146.114 360.369 147.246 363.264 147.242 366.638C147.238 370.012 146.097 372.887 143.822 375.263C141.581 377.675 138.899 378.879 135.774 378.875C132.613 378.871 129.898 377.66 127.629 375.242C125.394 372.86 124.279 369.982 124.284 366.608ZM30.2348 432.924C30.2457 424.543 32.0306 417.337 35.5895 411.304C39.1839 405.308 44.1615 400.698 50.5222 397.474C56.8829 394.286 64.2003 392.698 72.4744 392.709C80.8551 392.72 88.2039 394.345 94.5207 397.585C100.873 400.86 105.821 405.5 109.364 411.506C112.943 417.513 114.727 424.653 114.716 432.927C114.707 440.065 113.403 446.313 110.804 451.672C108.204 457.031 104.559 461.269 99.8674 464.388C95.1759 467.507 89.6694 469.222 83.3479 469.534L83.3757 448.121C87.4603 447.522 90.7471 445.928 93.2363 443.339C95.7609 440.786 97.0259 437.432 97.0313 433.277C97.0358 429.761 96.081 426.688 94.1668 424.058C92.2881 421.463 89.5386 419.435 85.9183 417.975C82.298 416.514 77.9133 415.78 72.7642 415.774C67.544 415.767 63.1042 416.471 59.4447 417.887C55.7851 419.338 52.9948 421.377 51.0738 424.002C49.1528 426.627 48.19 429.698 48.1854 433.213C48.1821 435.806 48.7117 438.132 49.7744 440.193C50.837 442.29 52.3796 444.014 54.402 445.366C56.4598 446.754 58.9267 447.663 61.8025 448.093L61.7748 469.506C55.5253 469.143 50.0232 467.431 45.2687 464.371C40.5496 461.346 36.8618 457.169 34.2053 451.839C31.5489 446.509 30.2254 440.204 30.2348 432.924ZM113.528 527.621L96.483 527.599L96.5468 478.327L113.592 478.349L113.528 527.621ZM133.18 489.56L133.151 512.252L56.8723 512.153C54.7771 512.15 53.1432 512.468 51.9705 513.106C50.8333 513.743 50.0331 514.63 49.57 515.766C49.1068 516.937 48.8743 518.286 48.8723 519.813C48.8709 520.879 48.9583 521.944 49.1345 523.01C49.3462 524.075 49.5049 524.892 49.6107 525.461L32.7204 529.008C32.3668 527.871 31.9605 526.272 31.5015 524.212C31.007 522.152 30.7084 519.648 30.6057 516.7C30.3997 511.231 31.1339 506.438 32.8083 502.321C34.4826 498.239 37.079 495.064 40.5976 492.796C44.1162 490.528 48.5565 489.415 53.9187 489.458L133.18 489.56ZM66.4598 594.81L113.441 594.87L113.412 617.562L31.5938 617.456L31.622 595.67L46.4835 595.689L46.4846 594.837C41.693 592.984 37.844 589.907 34.9376 585.607C32.0312 581.342 30.582 576.137 30.5899 569.994C30.597 564.525 31.8461 559.715 34.3373 555.563C36.8285 551.412 40.3661 548.167 44.9501 545.829C49.534 543.527 55.0221 542.362 61.4141 542.335L113.509 542.402L113.48 565.094L65.433 565.032C60.6035 565.061 56.7843 566.352 53.9756 568.906C51.1669 571.459 49.7598 574.884 49.7542 579.181C49.7506 581.915 50.3688 584.473 51.6086 586.853C52.8839 589.234 54.7635 591.154 57.2475 592.614C59.7313 594.108 62.8021 594.84 66.4598 594.81ZM31.5703 635.607L113.388 635.713L113.36 657.712L99.0844 657.694L99.0832 658.546C104.159 660.044 107.991 662.552 110.579 666.071C113.202 669.59 114.511 673.64 114.505 678.221C114.504 679.358 114.431 680.583 114.287 681.897C114.144 683.21 113.947 684.364 113.697 685.358L93.562 685.332C93.883 684.267 94.169 682.794 94.42 680.912C94.6711 679.03 94.7976 677.308 94.7996 675.746C94.8039 672.408 94.0798 669.424 92.6272 666.794C91.2102 664.2 89.2242 662.138 86.6693 660.607C84.1145 659.112 81.168 658.363 77.8299 658.359L31.5409 658.299L31.5703 635.607ZM29.8494 730.46C29.8603 722.044 31.5742 714.802 34.9912 708.734C38.4436 702.701 43.3147 698.056 49.6044 694.797C55.9297 691.538 63.4069 689.914 72.0362 689.925C80.4524 689.936 87.8366 691.579 94.1889 694.854C100.541 698.13 105.489 702.735 109.033 708.67C112.576 714.64 114.342 721.638 114.332 729.664C114.325 735.062 113.449 740.085 111.702 744.735C109.992 749.42 107.412 753.501 103.963 756.976C100.514 760.488 96.1778 763.216 90.9551 765.163C85.7679 767.109 79.6942 768.078 72.734 768.069L66.5017 768.061L66.5912 698.973L80.6537 698.992L80.5919 746.719C83.8589 746.723 86.754 746.017 89.2772 744.6C91.8003 743.182 93.7738 741.214 95.1975 738.695C96.6567 736.211 97.3884 733.317 97.3927 730.015C97.3971 726.57 96.6021 723.515 95.0075 720.85C93.4484 718.22 91.3382 716.158 88.6768 714.663C86.0508 713.168 83.1221 712.4 79.8907 712.361L66.5206 712.343C62.4724 712.338 58.9735 713.079 56.0241 714.567C53.0747 716.09 50.7992 718.236 49.1976 721.004C47.596 723.771 46.7928 727.055 46.7878 730.855C46.7846 733.376 47.1367 735.685 47.8442 737.781C48.5517 739.877 49.6147 741.672 51.0333 743.165C52.4518 744.658 54.1904 745.797 56.249 746.581L54.8369 767.566C49.7957 766.494 45.3951 764.305 41.6352 760.997C37.9107 757.725 35.0042 753.496 32.9158 748.308C30.8628 743.157 29.8407 737.207 29.8494 730.46Z" fill="url(#paint0_linear_95_2)" fill-opacity="0.2"/>
<defs>
<linearGradient id="paint0_linear_95_2" x1="177.725" y1="516.52" x2="-160.717" y2="516.081" gradientUnits="userSpaceOnUse">
<stop/>
<stop offset="0.857292" stop-opacity="0"/>
</linearGradient>
</defs>
</svg>
