<svg width="67" height="67" viewBox="0 0 67 67" fill="none" xmlns="http://www.w3.org/2000/svg">
<path fill-rule="evenodd" clip-rule="evenodd" d="M51.375 15.7255C49.0534 13.3885 46.291 11.5355 43.2481 10.2738C40.2052 9.01201 36.9421 8.36663 33.648 8.375C19.8348 8.375 8.58996 19.617 8.58438 33.4358C8.58438 37.8522 9.73733 42.1625 11.9288 45.9648L8.375 58.9488L21.6605 55.462C25.3355 57.4625 29.4526 58.5115 33.6368 58.5133H33.648C47.4583 58.5133 58.7032 47.2713 58.7087 33.4525C58.7182 30.1597 58.075 26.8977 56.8162 23.855C55.5574 20.8122 53.7081 18.0492 51.375 15.7255ZM33.648 54.284H33.6396C29.9086 54.2843 26.2462 53.2805 23.0368 51.3778L22.2775 50.9256L14.3938 52.9942L16.496 45.3088L16.0018 44.5215C13.9159 41.2006 12.8116 37.3575 12.8165 33.4358C12.8221 21.9509 22.1658 12.6072 33.6563 12.6072C36.3929 12.6011 39.1034 13.1378 41.6312 14.1863C44.1589 15.2347 46.4535 16.7741 48.3824 18.7153C50.3215 20.6473 51.8585 22.9444 52.9046 25.474C53.9506 28.0035 54.4849 30.7153 54.4766 33.4525C54.471 44.9375 45.1273 54.284 33.648 54.284ZM45.0742 38.6813C44.4461 38.3659 41.3697 36.8528 40.7946 36.6434C40.2223 36.434 39.8064 36.3308 39.3876 36.9561C38.9689 37.5814 37.7685 38.9912 37.4027 39.41C37.037 39.8287 36.6713 39.879 36.046 39.5663C35.4207 39.2536 33.4023 38.592 31.0098 36.4592C29.1478 34.7981 27.8915 32.749 27.5258 32.1209C27.1601 31.4928 27.4867 31.155 27.8022 30.8423C28.0842 30.5632 28.4275 30.1109 28.7402 29.7452C29.0529 29.3795 29.1562 29.1199 29.3655 28.7011C29.5749 28.2824 29.4716 27.9167 29.3125 27.604C29.1562 27.2885 27.9027 24.2065 27.3807 22.9531C26.8754 21.7387 26.3589 21.9006 25.9737 21.8839C25.5747 21.8676 25.1754 21.8601 24.776 21.8615C24.4585 21.8696 24.1461 21.9432 23.8583 22.0778C23.5706 22.2123 23.3137 22.4048 23.1038 22.6432C22.5287 23.2713 20.9124 24.7844 20.9124 27.8664C20.9124 30.9484 23.1569 33.9271 23.4695 34.3459C23.7822 34.7646 27.886 41.0877 34.1672 43.8013C35.6635 44.4461 36.8305 44.8314 37.7377 45.1217C39.2369 45.5991 40.602 45.5293 41.6824 45.3702C42.8856 45.1915 45.3869 43.8571 45.909 42.3943C46.431 40.9314 46.431 39.678 46.2747 39.4155C46.1183 39.1531 45.6968 38.994 45.0742 38.6813Z" fill="black"/>
</svg>
